<?xml version="1.0" encoding="UTF-8"?>
<!DOCTYPE svg PUBLIC "-//W3C//DTD SVG 1.1//EN" "http://www.w3.org/Graphics/SVG/1.1/DTD/svg11.dtd">
<svg xmlns="http://www.w3.org/2000/svg" xmlns:xlink="http://www.w3.org/1999/xlink" version="1.1" width="1775px" height="896px" viewBox="-0.5 -0.5 1775 896"><defs><linearGradient x1="0%" y1="0%" x2="0%" y2="100%" id="mx-gradient-e6e6e6-1-808080-1-s-0"><stop offset="0%" style="stop-color: rgb(230, 230, 230); stop-opacity: 1;"/><stop offset="100%" style="stop-color: rgb(128, 128, 128); stop-opacity: 1;"/></linearGradient></defs><g><rect x="730" y="330" width="150" height="90" fill="#c0f5a9" stroke="rgb(0, 0, 0)" stroke-width="2" pointer-events="all"/><g fill="rgb(0, 0, 0)" font-family="Helvetica" text-anchor="middle" font-size="11px"><text x="804.5" y="436.5">Set headers</text></g><rect x="0" y="0" width="1590" height="40" fill="none" stroke="none" pointer-events="all"/><g fill="rgb(0, 0, 0)" font-family="Helvetica" font-weight="bold" text-anchor="middle" font-size="40px"><text x="794.5" y="38.5">Customer Router Builder</text></g><path d="M 1695 210 L 1695 280.07 L 110.07 280.07 L 110.07 380.07 L 223.63 380.04" fill="none" stroke="rgb(0, 0, 0)" stroke-miterlimit="10" pointer-events="stroke"/><path d="M 228.88 380.04 L 221.88 383.54 L 223.63 380.04 L 221.88 376.54 Z" fill="rgb(0, 0, 0)" stroke="rgb(0, 0, 0)" stroke-miterlimit="10" pointer-events="all"/><rect x="735" y="300" width="140" height="20" fill="none" stroke="none" pointer-events="all"/><g fill="rgb(0, 0, 0)" font-family="Helvetica" text-anchor="middle" font-size="11px"><text x="804.5" y="314">set Authentication Header</text></g><path d="M 880 375 L 963.63 375" fill="none" stroke="rgb(0, 0, 0)" stroke-miterlimit="10" pointer-events="stroke"/><path d="M 968.88 375 L 961.88 378.5 L 963.63 375 L 961.88 371.5 Z" fill="rgb(0, 0, 0)" stroke="rgb(0, 0, 0)" stroke-miterlimit="10" pointer-events="all"/><rect x="25" y="520" width="110" height="20" fill="none" stroke="none" pointer-events="all"/><g fill="rgb(0, 0, 0)" font-family="Helvetica" text-anchor="middle" font-size="11px"><text x="79.5" y="534">Content base router</text></g><path d="M 630 375 L 723.63 375" fill="none" stroke="rgb(0, 0, 0)" stroke-miterlimit="10" pointer-events="stroke"/><path d="M 728.88 375 L 721.88 378.5 L 723.63 375 L 721.88 371.5 Z" fill="rgb(0, 0, 0)" stroke="rgb(0, 0, 0)" stroke-miterlimit="10" pointer-events="all"/><rect x="480" y="330" width="150" height="90" fill="#c0f5a9" stroke="rgb(0, 0, 0)" stroke-width="2" pointer-events="all"/><g fill="rgb(0, 0, 0)" font-family="Helvetica" text-anchor="middle" font-size="11px"><text x="554.5" y="436.5">Remove all headers</text></g><rect x="500" y="310" width="110" height="20" fill="none" stroke="none" pointer-events="all"/><g fill="rgb(0, 0, 0)" font-family="Helvetica" text-anchor="middle" font-size="11px"><text x="554.5" y="324">removeHeaders(*)</text></g><path d="M 1285 440 L 1285 460.07 L 80.07 460.07 L 80.07 513.63" fill="none" stroke="rgb(0, 0, 0)" stroke-miterlimit="10" pointer-events="stroke"/><path d="M 80.07 518.88 L 76.57 511.88 L 80.07 513.63 L 83.57 511.88 Z" fill="rgb(0, 0, 0)" stroke="rgb(0, 0, 0)" stroke-miterlimit="10" pointer-events="all"/><path d="M 160 585 L 246.33 585" fill="none" stroke="rgb(0, 0, 0)" stroke-miterlimit="10" pointer-events="stroke"/><path d="M 251.58 585 L 244.58 588.5 L 246.33 585 L 244.58 581.5 Z" fill="rgb(0, 0, 0)" stroke="rgb(0, 0, 0)" stroke-miterlimit="10" pointer-events="all"/><rect x="10" y="540" width="150" height="90" fill="#c0f5a9" stroke="rgb(0, 0, 0)" stroke-width="2" pointer-events="all"/><path d="M 20 585 L 55 585 M 115 564 L 150 564 M 115 585 L 150 585 M 115 606 L 150 606 M 115 564 L 55 585" fill="none" stroke="#000000" stroke-width="2" stroke-miterlimit="10" pointer-events="all"/><ellipse cx="55" cy="585" rx="4" ry="4" fill="#000000" stroke="none" pointer-events="all"/><ellipse cx="115" cy="564" rx="4" ry="4" fill="#000000" stroke="none" pointer-events="all"/><ellipse cx="115" cy="585" rx="4" ry="4" fill="#000000" stroke="none" pointer-events="all"/><ellipse cx="115" cy="606" rx="4" ry="4" fill="#000000" stroke="none" pointer-events="all"/><rect x="45" y="620" width="90" height="30" fill="none" stroke="none" pointer-events="all"/><g fill="rgb(0, 0, 0)" font-family="Helvetica" text-anchor="middle" font-size="11px"><text x="89.5" y="645.5">is 201 response</text></g><path d="M 80 649.95 L 80.07 815 L 126.33 815" fill="none" stroke="rgb(0, 0, 0)" stroke-miterlimit="10" pointer-events="stroke"/><path d="M 131.58 815 L 124.58 818.5 L 126.33 815 L 124.58 811.5 Z" fill="rgb(0, 0, 0)" stroke="rgb(0, 0, 0)" stroke-miterlimit="10" pointer-events="all"/><rect x="255" y="600" width="140" height="40" fill="none" stroke="none" pointer-events="all"/><g fill="rgb(0, 0, 0)" font-family="Helvetica" text-anchor="middle" font-size="11px"><text x="324.5" y="624">vend-customers-error</text></g><rect x="865" y="860" width="60" height="20" fill="none" stroke="none" pointer-events="all"/><g fill="rgb(0, 0, 0)" font-family="Helvetica" text-anchor="middle" font-size="11px"><text x="894.5" y="874">Customer</text></g><rect x="1365" y="210" width="160" height="20" fill="none" stroke="none" pointer-events="all"/><g fill="rgb(0, 0, 0)" font-family="Helvetica" text-anchor="middle" font-size="11px"><text x="1444.5" y="224">Convert Account to customer</text></g><rect x="1000" y="420" width="100" height="20" fill="none" stroke="none" pointer-events="all"/><g fill="rgb(0, 0, 0)" font-family="Helvetica" text-anchor="middle" font-size="11px"><text x="1049.5" y="434">Application Json</text></g><rect x="385" y="860" width="100" height="20" fill="none" stroke="none" pointer-events="all"/><g fill="rgb(0, 0, 0)" font-family="Helvetica" text-anchor="middle" font-size="11px"><text x="434.5" y="874">set body to $.data</text></g><rect x="885" y="210" width="100" height="20" fill="none" stroke="none" pointer-events="all"/><g fill="rgb(0, 0, 0)" font-family="Helvetica" text-anchor="middle" font-size="11px"><text x="934.5" y="224">To Account.class</text></g><path d="M 1010 165 L 1106.33 165" fill="none" stroke="rgb(0, 0, 0)" stroke-miterlimit="10" pointer-events="stroke"/><path d="M 1111.58 165 L 1104.58 168.5 L 1106.33 165 L 1104.58 161.5 Z" fill="rgb(0, 0, 0)" stroke="rgb(0, 0, 0)" stroke-miterlimit="10" pointer-events="all"/><rect x="630" y="865" width="50" height="20" fill="none" stroke="none" pointer-events="all"/><g fill="rgb(0, 0, 0)" font-family="Helvetica" text-anchor="middle" font-size="11px"><text x="654.5" y="879">to Json</text></g><path d="M 1440 815 L 1523.63 815" fill="none" stroke="rgb(0, 0, 0)" stroke-miterlimit="10" pointer-events="stroke"/><path d="M 1528.88 815 L 1521.88 818.5 L 1523.63 815 L 1521.88 811.5 Z" fill="rgb(0, 0, 0)" stroke="rgb(0, 0, 0)" stroke-miterlimit="10" pointer-events="all"/><rect x="1290" y="770" width="150" height="90" fill="#c0f5a9" stroke="rgb(0, 0, 0)" stroke-width="2" pointer-events="all"/><rect x="820" y="360" width="40" height="40" fill="#ffffff" stroke="#000000" pointer-events="all"/><path d="M 770 379.91 L 803.63 379.91" fill="none" stroke="rgb(0, 0, 0)" stroke-miterlimit="10" pointer-events="stroke"/><path d="M 808.88 379.91 L 801.88 383.41 L 803.63 379.91 L 801.88 376.41 Z" fill="rgb(0, 0, 0)" stroke="rgb(0, 0, 0)" stroke-miterlimit="10" pointer-events="all"/><rect x="740" y="370" width="20" height="20" fill="rgb(255, 255, 255)" stroke="rgb(0, 0, 0)" pointer-events="all"/><rect x="60" y="180" width="120" height="40" fill="none" stroke="none" pointer-events="all"/><g fill="rgb(0, 0, 0)" font-family="Helvetica" text-anchor="middle" font-size="11px"><text x="119.5" y="191">Jetty endpoint</text><text x="119.5" y="204">ajax client</text></g><path d="M 200 165 L 293.63 165" fill="none" stroke="rgb(0, 0, 0)" stroke-miterlimit="10" pointer-events="stroke"/><path d="M 298.88 165 L 291.88 168.5 L 293.63 165 L 291.88 161.5 Z" fill="rgb(0, 0, 0)" stroke="rgb(0, 0, 0)" stroke-miterlimit="10" pointer-events="all"/><path d="M 58 175 C 54.65 172.78 52.63 169.02 52.63 165 C 52.63 160.98 54.65 157.22 58 155 L 192 155 C 195.35 157.22 197.37 160.98 197.37 165 C 197.37 169.02 195.35 172.78 192 175 Z" fill="url(#mx-gradient-e6e6e6-1-808080-1-s-0)" stroke="rgb(0, 0, 0)" stroke-miterlimit="10" pointer-events="all"/><path d="M 192 155 C 195.35 157.22 197.37 160.98 197.37 165 C 197.37 169.02 195.35 172.78 192 175 C 188.65 172.78 186.63 169.02 186.63 165 C 186.63 160.98 188.65 157.22 192 155" fill="#e6e6e6" stroke="rgb(0, 0, 0)" stroke-miterlimit="10" pointer-events="all"/><path d="M 50 130 L 188.58 130" fill="none" stroke="rgb(0, 0, 0)" stroke-miterlimit="10" pointer-events="stroke"/><path d="M 193.83 130 L 186.83 133.5 L 188.58 130 L 186.83 126.5 Z" fill="rgb(0, 0, 0)" stroke="rgb(0, 0, 0)" stroke-miterlimit="10" pointer-events="all"/><path d="M 730 165 L 843.63 165" fill="none" stroke="rgb(0, 0, 0)" stroke-miterlimit="10" pointer-events="stroke"/><path d="M 848.88 165 L 841.88 168.5 L 843.63 165 L 841.88 161.5 Z" fill="rgb(0, 0, 0)" stroke="rgb(0, 0, 0)" stroke-miterlimit="10" pointer-events="all"/><path d="M 588 175 C 584.65 172.78 582.63 169.02 582.63 165 C 582.63 160.98 584.65 157.22 588 155 L 722 155 C 725.35 157.22 727.37 160.98 727.37 165 C 727.37 169.02 725.35 172.78 722 175 Z" fill="url(#mx-gradient-e6e6e6-1-808080-1-s-0)" stroke="rgb(0, 0, 0)" stroke-miterlimit="10" pointer-events="all"/><path d="M 722 155 C 725.35 157.22 727.37 160.98 727.37 165 C 727.37 169.02 725.35 172.78 722 175 C 718.65 172.78 716.63 169.02 716.63 165 C 716.63 160.98 718.65 157.22 722 155" fill="#e6e6e6" stroke="rgb(0, 0, 0)" stroke-miterlimit="10" pointer-events="all"/><path d="M 590 130 L 723.63 130" fill="none" stroke="rgb(0, 0, 0)" stroke-miterlimit="10" pointer-events="stroke"/><path d="M 728.88 130 L 721.88 133.5 L 723.63 130 L 721.88 126.5 Z" fill="rgb(0, 0, 0)" stroke="rgb(0, 0, 0)" stroke-miterlimit="10" pointer-events="all"/><rect x="590" y="180" width="130" height="30" fill="none" stroke="none" pointer-events="all"/><g fill="rgb(0, 0, 0)" font-family="Helvetica" text-anchor="middle" font-size="11px"><text x="654.5" y="196.5">newAccount</text></g><rect x="1630" y="170" width="120" height="40" fill="none" stroke="none" pointer-events="all"/><g fill="rgb(0, 0, 0)" font-family="Helvetica" text-anchor="middle" font-size="11px"><text x="1689.5" y="194">newCustomerObject</text></g><path d="M 1628 175 C 1624.65 172.78 1622.63 169.02 1622.63 165 C 1622.63 160.98 1624.65 157.22 1628 155 L 1762 155 C 1765.35 157.22 1767.37 160.98 1767.37 165 C 1767.37 169.02 1765.35 172.78 1762 175 Z" fill="url(#mx-gradient-e6e6e6-1-808080-1-s-0)" stroke="rgb(0, 0, 0)" stroke-miterlimit="10" pointer-events="all"/><path d="M 1762 155 C 1765.35 157.22 1767.37 160.98 1767.37 165 C 1767.37 169.02 1765.35 172.78 1762 175 C 1758.65 172.78 1756.63 169.02 1756.63 165 C 1756.63 160.98 1758.65 157.22 1762 155" fill="#e6e6e6" stroke="rgb(0, 0, 0)" stroke-miterlimit="10" pointer-events="all"/><path d="M 1620 120 L 1758.58 120" fill="none" stroke="rgb(0, 0, 0)" stroke-miterlimit="10" pointer-events="stroke"/><path d="M 1763.83 120 L 1756.83 123.5 L 1758.58 120 L 1756.83 116.5 Z" fill="rgb(0, 0, 0)" stroke="rgb(0, 0, 0)" stroke-miterlimit="10" pointer-events="all"/><path d="M 1120 375 L 1203.63 375" fill="none" stroke="rgb(0, 0, 0)" stroke-miterlimit="10" pointer-events="stroke"/><path d="M 1208.88 375 L 1201.88 378.5 L 1203.63 375 L 1201.88 371.5 Z" fill="rgb(0, 0, 0)" stroke="rgb(0, 0, 0)" stroke-miterlimit="10" pointer-events="all"/><rect x="970" y="330" width="150" height="90" fill="#c0f5a9" stroke="rgb(0, 0, 0)" stroke-width="2" pointer-events="all"/><rect x="1005" y="310" width="90" height="20" fill="none" stroke="none" pointer-events="all"/><g fill="rgb(0, 0, 0)" font-family="Helvetica" text-anchor="middle" font-size="11px"><text x="1049.5" y="324">setContent type</text></g><rect x="1060" y="360" width="40" height="40" fill="#ffffff" stroke="#000000" pointer-events="all"/><path d="M 1010 379.91 L 1043.63 379.91" fill="none" stroke="rgb(0, 0, 0)" stroke-miterlimit="10" pointer-events="stroke"/><path d="M 1048.88 379.91 L 1041.88 383.41 L 1043.63 379.91 L 1041.88 376.41 Z" fill="rgb(0, 0, 0)" stroke="rgb(0, 0, 0)" stroke-miterlimit="10" pointer-events="all"/><rect x="980" y="370" width="20" height="20" fill="rgb(255, 255, 255)" stroke="rgb(0, 0, 0)" pointer-events="all"/><rect x="145" y="830" width="120" height="40" fill="none" stroke="none" pointer-events="all"/><g fill="rgb(0, 0, 0)" font-family="Helvetica" text-anchor="middle" font-size="11px"><text x="204.5" y="854">vend-customers-response</text></g><path d="M 280 815 L 353.63 815" fill="none" stroke="rgb(0, 0, 0)" stroke-miterlimit="10" pointer-events="stroke"/><path d="M 358.88 815 L 351.88 818.5 L 353.63 815 L 351.88 811.5 Z" fill="rgb(0, 0, 0)" stroke="rgb(0, 0, 0)" stroke-miterlimit="10" pointer-events="all"/><path d="M 138 825 C 134.65 822.78 132.63 819.02 132.63 815 C 132.63 810.98 134.65 807.22 138 805 L 272 805 C 275.35 807.22 277.37 810.98 277.37 815 C 277.37 819.02 275.35 822.78 272 825 Z" fill="url(#mx-gradient-e6e6e6-1-808080-1-s-0)" stroke="rgb(0, 0, 0)" stroke-miterlimit="10" pointer-events="all"/><path d="M 272 805 C 275.35 807.22 277.37 810.98 277.37 815 C 277.37 819.02 275.35 822.78 272 825 C 268.65 822.78 266.63 819.02 266.63 815 C 266.63 810.98 268.65 807.22 272 805" fill="#e6e6e6" stroke="rgb(0, 0, 0)" stroke-miterlimit="10" pointer-events="all"/><path d="M 120 780 L 258.58 780" fill="none" stroke="rgb(0, 0, 0)" stroke-miterlimit="10" pointer-events="stroke"/><path d="M 263.83 780 L 256.83 783.5 L 258.58 780 L 256.83 776.5 Z" fill="rgb(0, 0, 0)" stroke="rgb(0, 0, 0)" stroke-miterlimit="10" pointer-events="all"/><path d="M 380 375 L 473.63 375" fill="none" stroke="rgb(0, 0, 0)" stroke-miterlimit="10" pointer-events="stroke"/><path d="M 478.88 375 L 471.88 378.5 L 473.63 375 L 471.88 371.5 Z" fill="rgb(0, 0, 0)" stroke="rgb(0, 0, 0)" stroke-miterlimit="10" pointer-events="all"/><rect x="230" y="330" width="150" height="90" fill="#c0f5a9" stroke="rgb(0, 0, 0)" stroke-width="2" pointer-events="all"/><rect x="245" y="345" width="40" height="60" fill="#e6e6e6" stroke="#000000" stroke-width="2" pointer-events="all"/><rect x="325" y="345" width="40" height="60" fill="#e6e6e6" stroke="#000000" stroke-width="2" pointer-events="all"/><path d="M 278 400 L 332 350 M 278 350 L 332 400" fill="none" stroke="#000000" stroke-width="2" stroke-miterlimit="10" pointer-events="all"/><path d="M 250 355 L 280 355 M 250 365 L 280 365 M 250 375 L 280 375 M 250 385 L 280 385 M 250 395 L 280 395 M 330 355 L 360 355 M 330 365 L 360 365 M 330 375 L 360 375 M 330 385 L 360 385 M 330 395 L 360 395" fill="none" stroke="#808080" stroke-width="2" stroke-miterlimit="10" pointer-events="all"/><g fill="rgb(0, 0, 0)" font-family="Helvetica" text-anchor="middle" font-size="11px"><text x="304.5" y="436.5">To Json</text></g><rect x="270" y="300" width="60" height="20" fill="none" stroke="none" pointer-events="all"/><g fill="rgb(0, 0, 0)" font-family="Helvetica" text-anchor="middle" font-size="11px"><text x="299.5" y="314">marshal</text></g><path d="M 510 815 L 583.63 815" fill="none" stroke="rgb(0, 0, 0)" stroke-miterlimit="10" pointer-events="stroke"/><path d="M 588.88 815 L 581.88 818.5 L 583.63 815 L 581.88 811.5 Z" fill="rgb(0, 0, 0)" stroke="rgb(0, 0, 0)" stroke-miterlimit="10" pointer-events="all"/><rect x="360" y="770" width="150" height="90" fill="#c0f5a9" stroke="rgb(0, 0, 0)" stroke-width="2" pointer-events="all"/><rect x="375" y="785" width="40" height="60" fill="#e6e6e6" stroke="#000000" stroke-width="2" pointer-events="all"/><rect x="455" y="785" width="40" height="60" fill="#e6e6e6" stroke="#000000" stroke-width="2" pointer-events="all"/><path d="M 408 840 L 462 790 M 408 790 L 462 840" fill="none" stroke="#000000" stroke-width="2" stroke-miterlimit="10" pointer-events="all"/><path d="M 380 795 L 410 795 M 380 805 L 410 805 M 380 815 L 410 815 M 380 825 L 410 825 M 380 835 L 410 835 M 460 795 L 490 795 M 460 805 L 490 805 M 460 815 L 490 815 M 460 825 L 490 825 M 460 835 L 490 835" fill="none" stroke="#808080" stroke-width="2" stroke-miterlimit="10" pointer-events="all"/><rect x="400" y="740" width="60" height="20" fill="none" stroke="none" pointer-events="all"/><g fill="rgb(0, 0, 0)" font-family="Helvetica" text-anchor="middle" font-size="11px"><text x="429.5" y="754">Json path</text></g><rect x="1065" y="820" width="120" height="40" fill="none" stroke="none" pointer-events="all"/><g fill="rgb(0, 0, 0)" font-family="Helvetica" text-anchor="middle" font-size="11px"><text x="1124.5" y="844">sendToAccountsService</text></g><path d="M 1200 815 L 1283.63 815" fill="none" stroke="rgb(0, 0, 0)" stroke-miterlimit="10" pointer-events="stroke"/><path d="M 1288.88 815 L 1281.88 818.5 L 1283.63 815 L 1281.88 811.5 Z" fill="rgb(0, 0, 0)" stroke="rgb(0, 0, 0)" stroke-miterlimit="10" pointer-events="all"/><path d="M 1058 825 C 1054.65 822.78 1052.63 819.02 1052.63 815 C 1052.63 810.98 1054.65 807.22 1058 805 L 1192 805 C 1195.35 807.22 1197.37 810.98 1197.37 815 C 1197.37 819.02 1195.35 822.78 1192 825 Z" fill="url(#mx-gradient-e6e6e6-1-808080-1-s-0)" stroke="rgb(0, 0, 0)" stroke-miterlimit="10" pointer-events="all"/><path d="M 1192 805 C 1195.35 807.22 1197.37 810.98 1197.37 815 C 1197.37 819.02 1195.35 822.78 1192 825 C 1188.65 822.78 1186.63 819.02 1186.63 815 C 1186.63 810.98 1188.65 807.22 1192 805" fill="#e6e6e6" stroke="rgb(0, 0, 0)" stroke-miterlimit="10" pointer-events="all"/><path d="M 1040 770.48 L 1178.58 770.48" fill="none" stroke="rgb(0, 0, 0)" stroke-miterlimit="10" pointer-events="stroke"/><path d="M 1183.83 770.48 L 1176.83 773.98 L 1178.58 770.48 L 1176.83 766.98 Z" fill="rgb(0, 0, 0)" stroke="rgb(0, 0, 0)" stroke-miterlimit="10" pointer-events="all"/><path d="M 460 165 L 576.33 165" fill="none" stroke="rgb(0, 0, 0)" stroke-miterlimit="10" pointer-events="stroke"/><path d="M 581.58 165 L 574.58 168.5 L 576.33 165 L 574.58 161.5 Z" fill="rgb(0, 0, 0)" stroke="rgb(0, 0, 0)" stroke-miterlimit="10" pointer-events="all"/><rect x="300" y="120" width="160" height="90" fill="#c0f5a9" stroke="rgb(0, 0, 0)" stroke-width="2" pointer-events="all"/><rect x="316" y="135" width="42.67" height="60" fill="#e6e6e6" stroke="#000000" stroke-width="2" pointer-events="all"/><rect x="401.33" y="135" width="42.67" height="60" fill="#e6e6e6" stroke="#000000" stroke-width="2" pointer-events="all"/><path d="M 351.2 190 L 408.8 140 M 351.2 140 L 408.8 190" fill="none" stroke="#000000" stroke-width="2" stroke-miterlimit="10" pointer-events="all"/><path d="M 321.33 145 L 353.33 145 M 321.33 155 L 353.33 155 M 321.33 165 L 353.33 165 M 321.33 175 L 353.33 175 M 321.33 185 L 353.33 185 M 406.67 145 L 438.67 145 M 406.67 155 L 438.67 155 M 406.67 165 L 438.67 165 M 406.67 175 L 438.67 175 M 406.67 185 L 438.67 185" fill="none" stroke="#808080" stroke-width="2" stroke-miterlimit="10" pointer-events="all"/><g fill="rgb(0, 0, 0)" font-family="Helvetica" text-anchor="middle" font-size="11px"><text x="379.5" y="226.5">Json to account object</text></g><rect x="290" y="80" width="180" height="30" fill="none" stroke="none" pointer-events="all"/><g fill="rgb(0, 0, 0)" font-family="Helvetica" text-anchor="middle" font-size="11px"><text x="379.5" y="96.5">Unmarshal</text></g><path d="M 1520 165 L 1616.33 165" fill="none" stroke="rgb(0, 0, 0)" stroke-miterlimit="10" pointer-events="stroke"/><path d="M 1621.58 165 L 1614.58 168.5 L 1616.33 165 L 1614.58 161.5 Z" fill="rgb(0, 0, 0)" stroke="rgb(0, 0, 0)" stroke-miterlimit="10" pointer-events="all"/><rect x="1360" y="120" width="160" height="90" fill="#c0f5a9" stroke="rgb(0, 0, 0)" stroke-width="2" pointer-events="all"/><rect x="1376" y="135" width="42.67" height="60" fill="#e6e6e6" stroke="#000000" stroke-width="2" pointer-events="all"/><rect x="1461.33" y="135" width="42.67" height="60" fill="#e6e6e6" stroke="#000000" stroke-width="2" pointer-events="all"/><path d="M 1411.2 190 L 1468.8 140 M 1411.2 140 L 1468.8 190" fill="none" stroke="#000000" stroke-width="2" stroke-miterlimit="10" pointer-events="all"/><path d="M 1381.33 145 L 1413.33 145 M 1381.33 155 L 1413.33 155 M 1381.33 165 L 1413.33 165 M 1381.33 175 L 1413.33 175 M 1381.33 185 L 1413.33 185 M 1466.67 145 L 1498.67 145 M 1466.67 155 L 1498.67 155 M 1466.67 165 L 1498.67 165 M 1466.67 175 L 1498.67 175 M 1466.67 185 L 1498.67 185" fill="none" stroke="#808080" stroke-width="2" stroke-miterlimit="10" pointer-events="all"/><rect x="1350" y="90" width="180" height="30" fill="none" stroke="none" pointer-events="all"/><g fill="rgb(0, 0, 0)" font-family="Helvetica" text-anchor="middle" font-size="11px"><text x="1439.5" y="106.5">Bean</text></g><rect x="570" y="360" width="40" height="40" fill="#ffffff" stroke="#000000" pointer-events="all"/><path d="M 520 379.91 L 553.63 379.91" fill="none" stroke="rgb(0, 0, 0)" stroke-miterlimit="10" pointer-events="stroke"/><path d="M 558.88 379.91 L 551.88 383.41 L 553.63 379.91 L 551.88 376.41 Z" fill="rgb(0, 0, 0)" stroke="rgb(0, 0, 0)" stroke-miterlimit="10" pointer-events="all"/><rect x="490" y="370" width="20" height="20" fill="rgb(255, 255, 255)" stroke="rgb(0, 0, 0)" pointer-events="all"/><path d="M 258 595 C 254.65 592.78 252.63 589.02 252.63 585 C 252.63 580.98 254.65 577.22 258 575 L 392 575 C 395.35 577.22 397.37 580.98 397.37 585 C 397.37 589.02 395.35 592.78 392 595 Z" fill="url(#mx-gradient-e6e6e6-1-808080-1-s-0)" stroke="rgb(0, 0, 0)" stroke-miterlimit="10" pointer-events="all"/><path d="M 392 575 C 395.35 577.22 397.37 580.98 397.37 585 C 397.37 589.02 395.35 592.78 392 595 C 388.65 592.78 386.63 589.02 386.63 585 C 386.63 580.98 388.65 577.22 392 575" fill="#e6e6e6" stroke="rgb(0, 0, 0)" stroke-miterlimit="10" pointer-events="all"/><path d="M 250 550 L 388.58 550" fill="none" stroke="rgb(0, 0, 0)" stroke-miterlimit="10" pointer-events="stroke"/><path d="M 393.83 550 L 386.83 553.5 L 388.58 550 L 386.83 546.5 Z" fill="rgb(0, 0, 0)" stroke="rgb(0, 0, 0)" stroke-miterlimit="10" pointer-events="all"/><path d="M 970 815 L 1046.33 815" fill="none" stroke="rgb(0, 0, 0)" stroke-miterlimit="10" pointer-events="stroke"/><path d="M 1051.58 815 L 1044.58 818.5 L 1046.33 815 L 1044.58 811.5 Z" fill="rgb(0, 0, 0)" stroke="rgb(0, 0, 0)" stroke-miterlimit="10" pointer-events="all"/><rect x="820" y="770" width="150" height="90" fill="#c0f5a9" stroke="rgb(0, 0, 0)" stroke-width="2" pointer-events="all"/><rect x="835" y="785" width="40" height="60" fill="#e6e6e6" stroke="#000000" stroke-width="2" pointer-events="all"/><rect x="915" y="785" width="40" height="60" fill="#e6e6e6" stroke="#000000" stroke-width="2" pointer-events="all"/><path d="M 868 840 L 922 790 M 868 790 L 922 840" fill="none" stroke="#000000" stroke-width="2" stroke-miterlimit="10" pointer-events="all"/><path d="M 840 795 L 870 795 M 840 805 L 870 805 M 840 815 L 870 815 M 840 825 L 870 825 M 840 835 L 870 835 M 920 795 L 950 795 M 920 805 L 950 805 M 920 815 L 950 815 M 920 825 L 950 825 M 920 835 L 950 835" fill="none" stroke="#808080" stroke-width="2" stroke-miterlimit="10" pointer-events="all"/><rect x="865" y="740" width="60" height="20" fill="none" stroke="none" pointer-events="all"/><g fill="rgb(0, 0, 0)" font-family="Helvetica" text-anchor="middle" font-size="11px"><text x="894.5" y="754">unmarshal</text></g><path d="M 740 815 L 813.63 815" fill="none" stroke="rgb(0, 0, 0)" stroke-miterlimit="10" pointer-events="stroke"/><path d="M 818.88 815 L 811.88 818.5 L 813.63 815 L 811.88 811.5 Z" fill="rgb(0, 0, 0)" stroke="rgb(0, 0, 0)" stroke-miterlimit="10" pointer-events="all"/><rect x="590" y="770" width="150" height="90" fill="#c0f5a9" stroke="rgb(0, 0, 0)" stroke-width="2" pointer-events="all"/><rect x="605" y="785" width="40" height="60" fill="#e6e6e6" stroke="#000000" stroke-width="2" pointer-events="all"/><rect x="685" y="785" width="40" height="60" fill="#e6e6e6" stroke="#000000" stroke-width="2" pointer-events="all"/><path d="M 638 840 L 692 790 M 638 790 L 692 840" fill="none" stroke="#000000" stroke-width="2" stroke-miterlimit="10" pointer-events="all"/><path d="M 610 795 L 640 795 M 610 805 L 640 805 M 610 815 L 640 815 M 610 825 L 640 825 M 610 835 L 640 835 M 690 795 L 720 795 M 690 805 L 720 805 M 690 815 L 720 815 M 690 825 L 720 825 M 690 835 L 720 835" fill="none" stroke="#808080" stroke-width="2" stroke-miterlimit="10" pointer-events="all"/><rect x="630" y="740" width="60" height="20" fill="none" stroke="none" pointer-events="all"/><g fill="rgb(0, 0, 0)" font-family="Helvetica" text-anchor="middle" font-size="11px"><text x="659.5" y="754">marshal</text></g><rect x="1545" y="825" width="125" height="45" fill="none" stroke="none" pointer-events="all"/><g fill="rgb(0, 0, 0)" font-family="Helvetica" text-anchor="middle" font-size="11px"><text x="1607" y="851.5">accounts-service-response</text></g><path d="M 1538 825 C 1534.65 822.78 1532.63 819.02 1532.63 815 C 1532.63 810.98 1534.65 807.22 1538 805 L 1672 805 C 1675.35 807.22 1677.37 810.98 1677.37 815 C 1677.37 819.02 1675.35 822.78 1672 825 Z" fill="url(#mx-gradient-e6e6e6-1-808080-1-s-0)" stroke="rgb(0, 0, 0)" stroke-miterlimit="10" pointer-events="all"/><path d="M 1672 805 C 1675.35 807.22 1677.37 810.98 1677.37 815 C 1677.37 819.02 1675.35 822.78 1672 825 C 1668.65 822.78 1666.63 819.02 1666.63 815 C 1666.63 810.98 1668.65 807.22 1672 805" fill="#e6e6e6" stroke="rgb(0, 0, 0)" stroke-miterlimit="10" pointer-events="all"/><path d="M 1530 770.48 L 1668.58 770.48" fill="none" stroke="rgb(0, 0, 0)" stroke-miterlimit="10" pointer-events="stroke"/><path d="M 1673.83 770.48 L 1666.83 773.98 L 1668.58 770.48 L 1666.83 766.98 Z" fill="rgb(0, 0, 0)" stroke="rgb(0, 0, 0)" stroke-miterlimit="10" pointer-events="all"/><rect x="850" y="120" width="160" height="90" fill="#c0f5a9" stroke="rgb(0, 0, 0)" stroke-width="2" pointer-events="all"/><rect x="866" y="135" width="42.67" height="60" fill="#e6e6e6" stroke="#000000" stroke-width="2" pointer-events="all"/><rect x="951.33" y="135" width="42.67" height="60" fill="#e6e6e6" stroke="#000000" stroke-width="2" pointer-events="all"/><path d="M 901.2 190 L 958.8 140 M 901.2 140 L 958.8 190" fill="none" stroke="#000000" stroke-width="2" stroke-miterlimit="10" pointer-events="all"/><path d="M 871.33 145 L 903.33 145 M 871.33 155 L 903.33 155 M 871.33 165 L 903.33 165 M 871.33 175 L 903.33 175 M 871.33 185 L 903.33 185 M 956.67 145 L 988.67 145 M 956.67 155 L 988.67 155 M 956.67 165 L 988.67 165 M 956.67 175 L 988.67 175 M 956.67 185 L 988.67 185" fill="none" stroke="#808080" stroke-width="2" stroke-miterlimit="10" pointer-events="all"/><rect x="840" y="90" width="180" height="30" fill="none" stroke="none" pointer-events="all"/><g fill="rgb(0, 0, 0)" font-family="Helvetica" text-anchor="middle" font-size="11px"><text x="929.5" y="106.5">unmarshal</text></g><path d="M 1257.3 165 L 1353.63 165" fill="none" stroke="rgb(0, 0, 0)" stroke-miterlimit="10" pointer-events="stroke"/><path d="M 1358.88 165 L 1351.88 168.5 L 1353.63 165 L 1351.88 161.5 Z" fill="rgb(0, 0, 0)" stroke="rgb(0, 0, 0)" stroke-miterlimit="10" pointer-events="all"/><path d="M 1118 175 C 1114.65 172.78 1112.63 169.02 1112.63 165 C 1112.63 160.98 1114.65 157.22 1118 155 L 1252 155 C 1255.35 157.22 1257.37 160.98 1257.37 165 C 1257.37 169.02 1255.35 172.78 1252 175 Z" fill="url(#mx-gradient-e6e6e6-1-808080-1-s-0)" stroke="rgb(0, 0, 0)" stroke-miterlimit="10" pointer-events="all"/><path d="M 1252 155 C 1255.35 157.22 1257.37 160.98 1257.37 165 C 1257.37 169.02 1255.35 172.78 1252 175 C 1248.65 172.78 1246.63 169.02 1246.63 165 C 1246.63 160.98 1248.65 157.22 1252 155" fill="#e6e6e6" stroke="rgb(0, 0, 0)" stroke-miterlimit="10" pointer-events="all"/><path d="M 1110 130 L 1248.58 130" fill="none" stroke="rgb(0, 0, 0)" stroke-miterlimit="10" pointer-events="stroke"/><path d="M 1253.83 130 L 1246.83 133.5 L 1248.58 130 L 1246.83 126.5 Z" fill="rgb(0, 0, 0)" stroke="rgb(0, 0, 0)" stroke-miterlimit="10" pointer-events="all"/><rect x="1125" y="180" width="110" height="20" fill="none" stroke="none" pointer-events="all"/><g fill="rgb(0, 0, 0)" font-family="Helvetica" text-anchor="middle" font-size="11px"><text x="1179.5" y="194">newAccountObject</text></g><rect x="1240" y="300" width="90" height="20" fill="none" stroke="none" pointer-events="all"/><g fill="rgb(0, 0, 0)" font-family="Helvetica" text-anchor="middle" font-size="11px"><text x="1284.5" y="314">Vend Endpoint</text></g><rect x="1380" y="800" width="40" height="40" fill="rgb(255, 255, 255)" stroke="rgb(0, 0, 0)" pointer-events="all"/><path d="M 1290 817 L 1355.76 817" fill="none" stroke="#808080" stroke-width="2" stroke-miterlimit="10" pointer-events="stroke"/><path d="M 1367.76 817 L 1355.76 823 L 1355.76 811 Z" fill="#808080" stroke="#808080" stroke-width="2" stroke-miterlimit="10" pointer-events="all"/><rect x="1260" y="865" width="250" height="30" fill="none" stroke="none" pointer-events="all"/><g fill="rgb(0, 0, 0)" font-family="Helvetica" font-size="11px"><text x="1261.5" y="881.5">Graphql endpoint mutation to addAccount</text></g><rect x="1210" y="330" width="150" height="90" fill="#c0f5a9" stroke="rgb(0, 0, 0)" stroke-width="2" pointer-events="all"/><rect x="1300" y="360" width="40" height="40" fill="rgb(255, 255, 255)" stroke="rgb(0, 0, 0)" pointer-events="all"/><path d="M 1210 374.5 L 1275.76 374.5" fill="none" stroke="#808080" stroke-width="2" stroke-miterlimit="10" pointer-events="stroke"/><path d="M 1287.76 374.5 L 1275.76 380.5 L 1275.76 368.5 Z" fill="#808080" stroke="#808080" stroke-width="2" stroke-miterlimit="10" pointer-events="all"/><rect x="1220" y="420" width="130" height="30" fill="none" stroke="none" pointer-events="all"/><g fill="rgb(0, 0, 0)" font-family="Helvetica" font-size="11px"><text x="1221.5" y="436.5">/Api/2.0/Customers</text></g></g></svg>